<svg width="19" height="23" viewBox="0 0 19 23" fill="none" xmlns="http://www.w3.org/2000/svg">
<path d="M9.49998 23C7.78583 21.6236 6.19696 20.1147 4.74999 18.489C2.57857 16.0477 1.19278e-06 12.4118 1.19278e-06 8.94718C-0.000940524 7.17776 0.555761 5.44784 1.59965 3.97635C2.64354 2.50487 4.1277 1.35797 5.86429 0.680805C7.60088 0.00363676 9.51185 -0.17336 11.3553 0.172213C13.1988 0.517787 14.892 1.3704 16.2205 2.62214C17.1051 3.45108 17.8061 4.43692 18.2832 5.52261C18.7603 6.6083 19.0039 7.77228 19 8.94718C19 12.4118 16.4214 16.0477 14.25 18.489C12.803 20.1147 11.2141 21.6236 9.49998 23ZM9.49998 5.1146C8.42017 5.1146 7.38459 5.51839 6.62105 6.23714C5.85751 6.95589 5.42856 7.93072 5.42856 8.94718C5.42856 9.96365 5.85751 10.9385 6.62105 11.6572C7.38459 12.376 8.42017 12.7798 9.49998 12.7798C10.5798 12.7798 11.6154 12.376 12.3789 11.6572C13.1424 10.9385 13.5714 9.96365 13.5714 8.94718C13.5714 7.93072 13.1424 6.95589 12.3789 6.23714C11.6154 5.51839 10.5798 5.1146 9.49998 5.1146Z" fill="white"/>
</svg>
