<svg width="47" height="47" viewBox="0 0 47 47" fill="none" xmlns="http://www.w3.org/2000/svg">
<path fill-rule="evenodd" clip-rule="evenodd" d="M3 3.62502C3 4.43044 3.65292 5.08335 4.45833 5.08335L36.5417 5.08335C37.3471 5.08335 38 4.43044 38 3.62502C38 2.81961 37.3471 2.16669 36.5417 2.16669H4.45833C3.65292 2.16669 3 2.81961 3 3.62502ZM3 12.375C3 13.1804 3.65292 13.8334 4.45833 13.8334L26.8194 13.8334C27.6249 13.8334 28.2778 13.1804 28.2778 12.375C28.2778 11.5696 27.6249 10.9167 26.8194 10.9167L4.45833 10.9167C3.65292 10.9167 3 11.5696 3 12.375Z" fill="white"/>
</svg>
