<svg width="16" height="15" viewBox="0 0 16 15" fill="none" xmlns="http://www.w3.org/2000/svg">
<path d="M10.5821 10.2741L11.9489 9.02877C12.133 8.86312 12.3659 8.74973 12.6193 8.70236C12.8728 8.65498 13.1359 8.67567 13.3766 8.76191L15.0424 9.36791C15.2857 9.4579 15.4944 9.61152 15.642 9.80939C15.7897 10.0073 15.8698 10.2405 15.8722 10.4798V13.2596C15.8708 13.4224 15.8332 13.5832 15.7618 13.7324C15.6904 13.8816 15.5865 14.0161 15.4566 14.1278C15.3266 14.2394 15.1732 14.326 15.0055 14.3822C14.8379 14.4384 14.6594 14.4632 14.481 14.4549C2.80874 13.7933 0.45354 4.78682 0.00812574 1.33988C-0.0125507 1.17061 0.00634081 0.999272 0.0635573 0.837133C0.120774 0.674995 0.215019 0.525732 0.340092 0.399165C0.465165 0.272597 0.618231 0.171594 0.789222 0.102799C0.960212 0.0340044 1.14525 -0.00102249 1.33216 2.27214e-05H4.27922C4.5422 0.000732004 4.79894 0.073113 5.01641 0.207856C5.23388 0.342599 5.40213 0.533542 5.49953 0.756125L6.1646 2.27389C6.26238 2.49242 6.28733 2.73236 6.23632 2.96373C6.18532 3.1951 6.06063 3.40765 5.87783 3.57483L4.51108 4.82017C4.51108 4.82017 5.29818 9.67368 10.5821 10.2741Z" fill="white"/>
</svg>
