<svg width="22" height="12" viewBox="0 0 22 12" fill="none" xmlns="http://www.w3.org/2000/svg">
<path d="M21.4956 0.795428C21.6493 0.336527 21.4956 0 20.7688 0H18.3611C17.7485 0 17.4685 0.291131 17.3148 0.610881C17.3148 0.610881 16.0907 3.29422 14.356 5.03409C13.7961 5.54036 13.5403 5.70024 13.2351 5.70024C13.0825 5.70024 12.8607 5.54036 12.8607 5.08146V0.795428C12.8607 0.244747 12.6839 0 12.1734 0H8.39007C8.00801 0 7.77745 0.254616 7.77745 0.497389C7.77745 1.01846 8.64478 1.13886 8.73371 2.60735V5.793C8.73371 6.49073 8.59428 6.61804 8.28687 6.61804C7.47114 6.61804 5.48615 3.92483 4.30812 0.841811C4.07866 0.242773 3.84701 0.000987282 3.23219 0.000987282H0.825613C0.137236 0.000987282 0 0.292118 0 0.611868C0 1.18623 0.815732 4.02846 3.7998 7.78749C5.78917 10.3544 8.58989 11.7459 11.1414 11.7459C12.6707 11.7459 12.8596 11.437 12.8596 10.9041V8.96386C12.8596 8.34607 13.0056 8.22172 13.4898 8.22172C13.8455 8.22172 14.4581 8.38357 15.8865 9.62014C17.5179 11.0866 17.788 11.7449 18.7047 11.7449H21.1113C21.7986 11.7449 22.1422 11.436 21.9446 10.8261C21.7283 10.2192 20.9488 9.33591 19.9146 8.2908C19.3525 7.69473 18.5126 7.05325 18.2568 6.73252C17.9 6.31901 18.0032 6.13644 18.2568 5.76932C18.2579 5.77031 21.1904 2.05765 21.4956 0.795428Z" fill="white"/>
</svg>
