<svg width="38" height="20" viewBox="0 0 38 20" fill="none" xmlns="http://www.w3.org/2000/svg">
<path d="M37.1287 1.35439C37.3942 0.573013 37.1287 0 35.8733 0H31.7146C30.6565 0 30.1729 0.495716 29.9074 1.04016C29.9074 1.04016 27.793 5.60914 24.7967 8.57167C23.8296 9.43371 23.3877 9.70593 22.8606 9.70593C22.597 9.70593 22.2139 9.43371 22.2139 8.65233V1.35439C22.2139 0.416737 21.9086 0 21.0268 0H14.4919C13.832 0 13.4338 0.433541 13.4338 0.846917C13.4338 1.73416 14.9319 1.93917 15.0855 4.43959V9.86389C15.0855 11.0519 14.8447 11.2687 14.3137 11.2687C12.9047 11.2687 9.47608 6.68291 7.4413 1.43337C7.04496 0.413376 6.64483 0.00168107 5.58287 0.00168107H1.42606C0.237045 0.00168107 0 0.497396 0 1.04184C0 2.01983 1.40899 6.85935 6.56328 13.26C9.99948 17.6306 14.8371 20 19.2442 20C21.8858 20 22.212 19.474 22.212 18.5666V15.263C22.212 14.2111 22.4642 13.9993 23.3005 13.9993C23.9149 13.9993 24.9731 14.2749 27.4403 16.3804C30.2582 18.8775 30.7247 19.9983 32.3082 19.9983H36.465C37.6521 19.9983 38.2457 19.4724 37.9043 18.4339C37.5308 17.4004 36.1843 15.8965 34.398 14.117C33.427 13.102 31.9763 12.0097 31.5345 11.4636C30.9182 10.7595 31.0964 10.4487 31.5345 9.82356C31.5364 9.82524 36.6015 3.50361 37.1287 1.35439Z" fill="white"/>
</svg>
