<svg width="246" height="67" viewBox="0 0 246 67" fill="none" xmlns="http://www.w3.org/2000/svg">
<path d="M5.44191 44.4344C4.89384 44.7219 4.35936 45.0962 3.83848 45.5573L1.63416 42.8421C2.13733 42.4194 2.66329 42.0286 3.21207 41.6699C3.76265 41.3227 4.33423 40.996 4.9268 40.6897C4.91218 40.2176 4.92651 39.7409 4.96978 39.2596C5.00147 38.7802 5.06971 38.3069 5.1745 37.8398L8.83525 37.925C8.6769 38.353 8.57065 38.773 8.51651 39.1847C10.1268 38.6361 11.7887 38.2276 13.5022 37.9594C14.2548 37.8415 15.016 37.8172 15.786 37.8865C16.556 37.9557 17.267 38.1409 17.9191 38.4421C18.5614 38.7567 19.1159 39.1918 19.5824 39.7474C20.0392 40.3164 20.3356 41.0351 20.4715 41.9034C20.5712 42.5402 20.5132 43.1542 20.2973 43.7455C20.0815 44.3368 19.7698 44.8838 19.3622 45.3865C20.1571 45.4637 20.9349 45.6206 21.6955 45.8574C22.4446 46.096 23.1252 46.4283 23.7376 46.8543C24.3517 47.2919 24.8743 47.8269 25.3055 48.4592C25.725 49.0934 26.0019 49.8388 26.136 50.6956C26.3027 51.7607 26.2381 52.7494 25.9421 53.6617C25.6362 54.5873 25.1654 55.4439 24.5296 56.2314C23.884 57.0323 23.1032 57.7654 22.1873 58.4307C21.2713 59.096 20.2876 59.7067 19.2359 60.2628C18.1727 60.8207 17.0657 61.3261 15.9149 61.7791C14.764 62.2321 13.6416 62.6391 12.5476 63.0002C11.4402 63.3515 10.3919 63.6639 9.40274 63.9374C8.40021 64.2011 7.51744 64.4342 6.75442 64.6367L5.88339 61.2324C6.23686 61.1414 6.59033 61.0505 6.9438 60.9596C7.28569 60.8705 7.63156 60.7689 7.98141 60.6548L5.44191 44.4344ZM9.40902 47.1583C9.65829 47.0837 10.0295 46.9544 10.5226 46.7704C11.0059 46.5999 11.5426 46.3913 12.1327 46.1447C12.7112 45.8999 13.3034 45.6293 13.9093 45.3328C14.5037 45.0381 15.0424 44.7284 15.5253 44.4037C15.9967 44.0808 16.3776 43.7483 16.668 43.4063C16.9487 43.0777 17.0645 42.7571 17.0156 42.4445C16.9648 42.1203 16.8256 41.8752 16.598 41.7092C16.3722 41.5548 16.1064 41.4482 15.8006 41.3893C15.4949 41.3304 15.183 41.308 14.8649 41.3223C14.5487 41.348 14.2748 41.3791 14.0433 41.4153C13.1402 41.5567 12.2435 41.7386 11.3531 41.961C10.4646 42.195 9.58995 42.4802 8.72928 42.8166L9.40902 47.1583ZM11.3639 59.6448C11.8936 59.467 12.5576 59.2385 13.3561 58.9593C14.1546 58.6801 14.9921 58.3473 15.8686 57.961C16.7452 57.5747 17.6145 57.142 18.4766 56.6631C19.3405 56.1957 20.1076 55.6782 20.7779 55.1107C21.4366 54.545 21.9522 53.9364 22.3246 53.285C22.6873 52.647 22.8116 51.9633 22.6974 51.2339C22.6249 50.7708 22.4457 50.3837 22.1597 50.0727C21.8641 49.775 21.5119 49.5336 21.1034 49.3484C20.6832 49.1651 20.2174 49.0305 19.7057 48.9445C19.1959 48.8701 18.6906 48.8247 18.1898 48.8082C17.6793 48.8051 17.1955 48.8215 16.7386 48.8575C16.2718 48.9069 15.8706 48.9578 15.5348 49.0104C14.5623 49.1626 13.6092 49.4008 12.6754 49.7249C11.7435 50.0606 10.8513 50.4613 9.99903 50.9268L11.3639 59.6448ZM28.99 35.8548L33.9336 35.3833L34.2681 37.5194C34.3007 37.7278 34.3563 38.0453 34.435 38.4718C34.502 38.9002 34.5906 39.3904 34.7008 39.9426C34.8012 40.508 34.9195 41.1123 35.0558 41.7552C35.192 42.3981 35.3389 43.0334 35.4965 43.6611C35.6559 44.3004 35.8281 44.908 36.0132 45.484C36.2001 46.0715 36.3983 46.5802 36.6079 47.01C36.8078 47.4531 37.0154 47.7943 37.2308 48.0334C37.4479 48.284 37.6723 48.3912 37.9039 48.355C38.2049 48.3079 38.4921 48.0968 38.7655 47.7219C39.0292 47.3604 39.2814 46.8879 39.5222 46.3046C39.7514 45.7231 39.967 45.0547 40.1691 44.2996C40.3729 43.556 40.5597 42.7794 40.7295 41.97C40.9012 41.1721 41.0603 40.3703 41.207 39.5645C41.3536 38.7586 41.4844 38.0028 41.5992 37.2968C41.7159 36.6024 41.8193 35.9754 41.9096 35.4156C42.0017 34.8674 42.0848 34.4511 42.1589 34.1667L46.429 33.7117C47.0322 37.4129 47.707 41.0792 48.4534 44.7106C49.1999 48.342 49.9268 52.0001 50.6342 55.685L46.4717 56.3723L44.2047 42.1198C44.1072 42.6333 43.9849 43.2158 43.8378 43.8675C43.6792 44.521 43.4885 45.1973 43.2658 45.8964C43.0432 46.5955 42.784 47.2885 42.4882 47.9753C42.1809 48.664 41.8279 49.2886 41.4294 49.8491C41.0308 50.4097 40.583 50.8831 40.086 51.2693C39.589 51.6556 39.0278 51.8976 38.4027 51.9955C37.8238 52.0861 37.2904 52.051 36.8026 51.8901C36.3149 51.7293 35.8723 51.4783 35.4749 51.1372C35.0793 50.8077 34.7201 50.4073 34.3972 49.936C34.0761 49.4762 33.7929 48.9927 33.5474 48.4855C33.2903 47.9801 33.068 47.4693 32.8805 46.953C32.6929 46.4368 32.5299 45.9641 32.3916 45.535L32.2415 59.0094L28.748 58.9693L28.99 35.8548ZM69.3932 50.3817C68.0249 50.8094 66.6523 51.2853 65.2754 51.8093C63.9003 52.3448 62.5507 52.9298 61.2266 53.5641C59.891 54.2002 58.6 54.8946 57.3538 55.6472C56.0959 56.4016 54.902 57.2231 53.772 58.1117L51.5969 55.3564L52.7587 54.4806L50.9817 40.0624L50.6936 40.2677L48.6732 37.3636C48.9604 37.1525 49.2552 36.9522 49.5576 36.7625C49.8601 36.5728 50.1692 36.388 50.485 36.2081L50.1385 33.5401L53.6455 33.0978L53.8337 34.5273C55.3412 33.8524 56.8873 33.2723 58.4719 32.787C60.0449 32.3035 61.6337 31.8827 63.2383 31.5248L63.9558 34.9709C62.2915 35.3263 60.6448 35.7562 59.0157 36.2603C57.3884 36.776 55.8041 37.4155 54.263 38.1787L54.9948 43.9889C56.5872 43.0991 58.2344 42.3312 59.9362 41.6852C61.638 41.0392 63.3765 40.4764 65.1518 39.9968L66.0695 43.3582C64.2266 43.8602 62.4066 44.4713 60.6097 45.1915C58.8012 45.9136 57.0884 46.7926 55.4714 47.8286L56.0394 52.3657C57.9715 51.221 59.9726 50.2138 62.0427 49.3441C64.103 48.4878 66.1952 47.7213 68.3192 47.0448L69.3932 50.3817ZM86.2425 42.0858C86.0716 42.8124 85.8732 43.5907 85.6473 44.4208C85.4116 45.2643 85.1336 46.1025 84.8133 46.9356C84.4948 47.7801 84.1246 48.5972 83.7025 49.3869C83.2824 50.1881 82.7965 50.9106 82.2449 51.5544C81.6933 52.1983 81.0724 52.7403 80.3822 53.1805C79.6804 53.6225 78.8953 53.9115 78.027 54.0474C77.1702 54.1815 76.3902 54.1613 75.6867 53.9868C74.9815 53.8007 74.3477 53.5025 73.7853 53.0924C73.2211 52.6707 72.7261 52.161 72.3004 51.5634C71.8632 50.9677 71.4899 50.3263 71.1807 49.6393C70.8599 48.9541 70.6001 48.2415 70.4013 47.5017C70.1908 46.7636 70.0303 46.0415 69.9197 45.3352C69.6098 43.3555 69.539 41.3501 69.7073 39.3191C69.7643 38.6222 69.8701 37.8584 70.0247 37.0276C70.1695 36.2102 70.3713 35.378 70.6301 34.5309C70.8908 33.6954 71.2071 32.8748 71.5792 32.0693C71.953 31.2753 72.4033 30.5525 72.9299 29.9007C73.4449 29.2507 74.0351 28.7016 74.7003 28.2535C75.3674 27.8169 76.1177 27.5334 76.9513 27.4029C77.727 27.2814 78.4605 27.3445 79.1516 27.5922C79.833 27.8532 80.4381 28.2329 80.9669 28.7314C81.4974 29.2414 81.9405 29.8362 82.296 30.516C82.6399 31.1976 82.8681 31.8972 82.9805 32.6151C83.082 33.2634 83.1412 33.9065 83.158 34.5444C83.1767 35.1939 83.1712 35.8412 83.1418 36.4863L79.6666 36.3365C79.6892 35.7992 79.6954 35.2704 79.6851 34.7501C79.6633 34.2316 79.6097 33.7003 79.5245 33.1561C79.4901 32.9362 79.4204 32.6802 79.3154 32.3882C79.2006 32.1097 79.0529 31.8481 78.8722 31.6036C78.6934 31.3706 78.4911 31.1769 78.2653 31.0225C78.0279 30.8699 77.7703 30.8153 77.4924 30.8588C76.9482 30.944 76.4691 31.1792 76.0549 31.5643C75.631 31.9628 75.2679 32.4466 74.9656 33.0159C74.6517 33.5869 74.3883 34.2153 74.1754 34.901C73.9509 35.5885 73.7736 36.2746 73.6436 36.9592C73.502 37.6456 73.3963 38.2968 73.3267 38.9126C73.257 39.5284 73.2134 40.0453 73.1958 40.4632C73.1747 41.2375 73.1807 41.9957 73.2139 42.7378C73.247 43.4799 73.3225 44.2272 73.4403 44.9798C73.4929 45.3155 73.5643 45.6958 73.6545 46.1205C73.7447 46.5453 73.8657 46.9771 74.0174 47.4159C74.1692 47.8548 74.3481 48.2775 74.5541 48.6841C74.7619 49.1023 75.0087 49.4669 75.2947 49.778C75.569 50.0909 75.8904 50.3253 76.2588 50.4811C76.6156 50.6388 77.0255 50.6813 77.4886 50.6088C78.0096 50.5273 78.4955 50.297 78.9462 49.918C79.3872 49.5525 79.7905 49.0979 80.1561 48.5543C80.5101 48.0126 80.8311 47.4108 81.1189 46.7489C81.4067 46.087 81.6646 45.4239 81.8928 44.7596C82.1093 44.097 82.3005 43.4621 82.4664 42.8549C82.6207 42.2496 82.7463 41.7258 82.8431 41.2836L86.2425 42.0858ZM85.3986 31.8095C86.2014 31.4821 87.0767 31.1256 88.0246 30.74C88.9743 30.366 89.9635 29.9798 90.9924 29.5815C92.0232 29.1947 93.0761 28.7986 94.1513 28.393C95.2283 27.999 96.2956 27.6184 97.3531 27.2512C98.4008 26.8974 99.4223 26.5655 100.418 26.2554C101.413 25.9454 102.343 25.6752 103.209 25.4448L104.253 28.8219C103.115 29.1306 101.959 29.4717 100.784 29.8455C99.6107 30.2308 98.3173 30.6824 96.9038 31.2003C96.9159 32.7166 97.0028 34.2569 97.1647 35.821C97.3265 37.3851 97.5461 39.0528 97.8234 40.8242C98.0881 42.5146 98.3954 44.1745 98.7454 45.8041C99.0839 47.4354 99.4762 49.0702 99.9225 50.7084L95.9478 51.6865C95.6102 50.3634 95.3189 49.0331 95.0739 47.6955C94.8191 46.3713 94.5866 45.0377 94.3763 43.6947C94.0845 41.8307 93.8466 39.9701 93.6626 38.1129C93.4688 36.2692 93.3552 34.4069 93.3217 32.5262L86.9388 35.0556L85.3986 31.8095ZM126.043 41.5125C124.675 41.9402 123.302 42.4161 121.925 42.94C120.55 43.4756 119.2 44.0605 117.876 44.6948C116.541 45.331 115.25 46.0253 114.004 46.7779C112.746 47.5324 111.552 48.3539 110.422 49.2425L108.247 46.4872L109.408 45.6114L107.631 31.1932L107.343 31.3984L105.323 28.4943C105.61 28.2833 105.905 28.083 106.207 27.8933C106.51 27.7036 106.819 27.5188 107.135 27.3389L106.788 24.6709L110.295 24.2286L110.483 25.6581C111.991 24.9832 113.537 24.4031 115.122 23.9178C116.695 23.4343 118.283 23.0135 119.888 22.6555L120.606 26.1017C118.941 26.4571 117.295 26.8869 115.665 27.3911C114.038 27.9068 112.454 28.5463 110.913 29.3095L111.645 35.1197C113.237 34.2299 114.884 33.4619 116.586 32.8159C118.288 32.1699 120.026 31.6071 121.802 31.1275L122.719 34.4889C120.876 34.991 119.056 35.6021 117.259 36.3223C115.451 37.0443 113.738 37.9234 112.121 38.9594L112.689 43.4964C114.621 42.3518 116.622 41.3446 118.692 40.4749C120.753 39.6185 122.845 38.8521 124.969 38.1756L126.043 41.5125ZM150.916 31.9604C150.745 32.687 150.546 33.4654 150.32 34.2954C150.085 35.1389 149.807 35.9772 149.486 36.8102C149.168 37.6548 148.798 38.4719 148.376 39.2615C147.955 40.0627 147.47 40.7852 146.918 41.4291C146.366 42.0729 145.746 42.6149 145.055 43.0551C144.353 43.4971 143.568 43.7861 142.7 43.922C141.843 44.0562 141.063 44.036 140.36 43.8614C139.655 43.6753 139.021 43.3772 138.458 42.967C137.894 42.5453 137.399 42.0357 136.974 41.4381C136.536 40.8423 136.163 40.2009 135.854 39.5139C135.533 38.8287 135.273 38.1162 135.074 37.3763C134.864 36.6382 134.703 35.9161 134.593 35.2099C134.283 33.2301 134.212 31.2247 134.38 29.1937C134.437 28.4969 134.543 27.733 134.698 26.9022C134.843 26.0848 135.044 25.2526 135.303 24.4055C135.564 23.57 135.88 22.7494 136.252 21.9439C136.626 21.15 137.076 20.4271 137.603 19.7753C138.118 19.1253 138.708 18.5762 139.373 18.1281C140.041 17.6915 140.791 17.408 141.624 17.2775C142.4 17.1561 143.134 17.2192 143.825 17.4668C144.506 17.7278 145.111 18.1075 145.64 18.606C146.171 19.116 146.614 19.7109 146.969 20.3906C147.313 21.0722 147.541 21.7719 147.654 22.4897C147.755 23.138 147.814 23.7812 147.831 24.419C147.85 25.0685 147.844 25.7158 147.815 26.3609L144.34 26.2111C144.362 25.6738 144.369 25.145 144.358 24.6247C144.336 24.1062 144.283 23.5749 144.198 23.0308C144.163 22.8108 144.093 22.5548 143.988 22.2629C143.874 21.9843 143.726 21.7227 143.545 21.4782C143.367 21.2452 143.164 21.0515 142.938 20.8971C142.701 20.7445 142.443 20.6899 142.165 20.7335C141.621 20.8186 141.142 21.0538 140.728 21.4389C140.304 21.8374 139.941 22.3213 139.639 22.8905C139.325 23.4615 139.061 24.0899 138.848 24.7756C138.624 25.4632 138.447 26.1492 138.317 26.8338C138.175 27.5203 138.069 28.1714 138 28.7872C137.93 29.4031 137.887 29.9199 137.869 30.3378C137.848 31.1122 137.854 31.8703 137.887 32.6124C137.92 33.3545 137.996 34.1018 138.113 34.8544C138.166 35.1901 138.237 35.5704 138.328 35.9951C138.418 36.4199 138.539 36.8517 138.691 37.2905C138.842 37.7294 139.021 38.1521 139.227 38.5587C139.435 38.9769 139.682 39.3416 139.968 39.6526C140.242 39.9655 140.564 40.1999 140.932 40.3557C141.289 40.5134 141.699 40.5559 142.162 40.4834C142.683 40.4019 143.169 40.1716 143.619 39.7926C144.06 39.4271 144.464 38.9725 144.829 38.4289C145.183 37.8872 145.504 37.2854 145.792 36.6235C146.08 35.9617 146.338 35.2985 146.566 34.6342C146.782 33.9716 146.974 33.3367 147.139 32.7296C147.294 32.1242 147.419 31.6004 147.516 31.1582L150.916 31.9604ZM159.628 27.6072C159.912 27.5985 160.164 27.5827 160.386 27.5598C160.598 27.5503 160.808 27.5293 161.017 27.4966C161.227 27.4756 161.442 27.4479 161.662 27.4134C161.884 27.3905 162.14 27.3622 162.431 27.3285C162.134 25.2756 161.855 23.2316 161.596 21.1964C161.327 19.1747 161.084 17.131 160.867 15.0654L164.351 14.698C164.809 18.7658 165.318 22.8081 165.875 26.8249C167.033 26.6436 168.191 26.4267 169.35 26.1742C170.499 25.935 171.637 25.6678 172.765 25.3726C172.446 23.1095 172.154 20.866 171.889 18.6419C171.612 16.4197 171.38 14.1787 171.192 11.9188L175.547 12.0021C175.455 14.0685 175.493 16.1265 175.659 18.1762C175.816 20.2393 176.015 22.3018 176.254 24.3637C176.489 24.2677 176.735 24.1758 176.994 24.0878C177.255 24.0113 177.514 23.9233 177.771 23.8238L178.793 27.1688C178.445 27.2945 178.096 27.4144 177.746 27.5284C177.387 27.6559 177.032 27.7767 176.682 27.8908L176.978 29.7837C177.182 31.0804 177.414 32.3784 177.677 33.6776C177.928 34.9786 178.203 36.2818 178.503 37.5872L174.874 38.3867C174.669 37.2325 174.47 36.0717 174.275 34.9041C174.08 33.7366 173.892 32.5739 173.711 31.4162L173.312 28.8633C172.17 29.1488 171.024 29.4053 169.874 29.6328C168.725 29.872 167.573 30.0938 166.419 30.2982L166.615 31.5486C166.851 33.0537 167.091 34.5521 167.337 36.0438C167.584 37.5471 167.84 39.0669 168.104 40.6031L164.63 41.1469C164.337 39.4254 164.049 37.6973 163.765 35.9624C163.484 34.2391 163.207 32.5092 162.935 30.7725C162.632 30.8081 162.358 30.8391 162.113 30.8656C161.87 30.9037 161.638 30.9341 161.416 30.957C161.184 30.9932 160.952 31.0237 160.719 31.0484C160.476 31.0864 160.202 31.1175 159.897 31.1414L159.628 27.6072ZM182.296 36.8154C182.567 35.9664 182.832 35.1242 183.093 34.2887C183.353 33.4532 183.601 32.6137 183.837 31.7702C183.448 31.9378 183.059 32.1055 182.67 32.2731C182.27 32.4426 181.864 32.6187 181.454 32.8016L180.079 29.5831C180.899 29.2174 181.721 28.8633 182.545 28.5207C183.37 28.1782 184.2 27.8405 185.038 27.5078C185.861 24.3543 186.587 21.1863 187.215 18.0039C187.832 14.8233 188.324 11.6029 188.692 8.34282L192.686 7.71746C192.955 9.20555 193.248 10.5889 193.567 11.8675C193.876 13.1594 194.249 14.4058 194.686 15.6065C195.114 16.8207 195.621 18.0163 196.209 19.1935C196.796 20.3707 197.504 21.5944 198.331 22.8645C199.763 22.4624 201.2 22.0951 202.642 21.7625L203.459 25.1576C202.943 25.2739 202.44 25.3941 201.949 25.5184C201.461 25.6542 200.96 25.7919 200.448 25.9313C201.196 26.9174 201.956 27.8719 202.729 28.7946C203.493 29.7308 204.267 30.6593 205.051 31.5803L202.382 33.8486C201.437 32.7392 200.508 31.6155 199.594 30.4775C198.671 29.3529 197.783 28.1872 196.93 26.9804C195.413 27.4433 193.913 27.9391 192.43 28.4678C190.935 28.9983 189.443 29.5462 187.954 30.1114C187.591 31.4257 187.219 32.7293 186.841 34.0222C186.462 35.3151 186.059 36.6058 185.632 37.8944L182.296 36.8154ZM194.885 23.92C194.124 22.6988 193.429 21.4434 192.801 20.1541C192.16 18.8666 191.602 17.5365 191.126 16.1639C190.828 17.8237 190.509 19.4572 190.167 21.0645C189.828 22.6834 189.454 24.3135 189.047 25.9549L194.885 23.92ZM206.129 8.12149L211.073 7.64998L211.407 9.78607C211.44 9.99447 211.495 10.3119 211.574 10.7385C211.641 11.1669 211.73 11.6571 211.84 12.2092C211.94 12.7747 212.059 13.3789 212.195 14.0218C212.331 14.6648 212.478 15.3001 212.636 15.9278C212.795 16.5671 212.967 17.1747 213.152 17.7507C213.339 18.3382 213.537 18.8469 213.747 19.2766C213.947 19.7198 214.154 20.0609 214.37 20.3C214.587 20.5507 214.811 20.6579 215.043 20.6217C215.344 20.5745 215.631 20.3635 215.905 19.9886C216.168 19.627 216.42 19.1546 216.661 18.5713C216.89 17.9898 217.106 17.3214 217.308 16.5662C217.512 15.8226 217.699 15.0461 217.869 14.2367C218.04 13.4388 218.199 12.637 218.346 11.8311C218.493 11.0253 218.623 10.2694 218.738 9.56348C218.855 8.86911 218.958 8.24205 219.049 7.68228C219.141 7.1341 219.224 6.7178 219.298 6.43338L223.568 5.97836C224.171 9.6796 224.846 13.3459 225.592 16.9773C226.339 20.6086 227.066 24.2668 227.773 27.9517L223.611 28.639L221.344 14.3865C221.246 14.8999 221.124 15.4825 220.977 16.1342C220.818 16.7877 220.628 17.464 220.405 18.1631C220.182 18.8622 219.923 19.5552 219.627 20.242C219.32 20.9306 218.967 21.5552 218.568 22.1158C218.17 22.6764 217.722 23.1498 217.225 23.536C216.728 23.9222 216.167 24.1643 215.542 24.2622C214.963 24.3528 214.429 24.3177 213.942 24.1568C213.454 23.996 213.011 23.745 212.614 23.4039C212.218 23.0744 211.859 22.674 211.536 22.2026C211.215 21.7429 210.932 21.2594 210.686 20.7522C210.429 20.2468 210.207 19.736 210.019 19.2197C209.832 18.7034 209.669 18.2308 209.531 17.8017L209.381 31.2761L205.887 31.2359L206.129 8.12149ZM229.237 24.9114C228.455 20.7518 227.901 18.0452 227.574 16.7916C227.033 14.6226 226.544 12.4513 226.109 10.2776C225.674 8.10395 225.265 5.90837 224.882 3.69089L229.044 3.34173C229.236 5.01979 229.465 6.70979 229.731 8.41171C229.969 9.92839 230.24 11.4338 230.545 12.9281C230.837 14.4125 231.448 17.4838 232.379 22.142C233.71 11.021 235.356 4.25738 237.316 1.85103L241.003 1.54055C241.1 4.27734 241.271 6.99655 241.516 9.69819C241.747 12.3901 242.076 15.0964 242.502 17.8171C242.714 19.1717 242.948 20.5169 243.205 21.8527C243.45 23.1903 243.732 24.534 244.05 25.8838L239.728 26.9163C239.229 23.7325 238.816 20.5649 238.489 17.4135C238.162 14.2621 237.902 11.0883 237.71 7.89205C236.1 15.4152 234.843 22.0825 233.938 27.8939C232.391 28.2428 231.156 28.537 230.233 28.7765L229.237 24.9114Z" fill="#42C0EF"/>
</svg>
