<svg width="30" height="30" viewBox="0 0 30 30" fill="none" xmlns="http://www.w3.org/2000/svg">
<path d="M28.3245 0.293379L4.13851 2.00357C3.95344 2.01728 3.77865 2.09611 3.64499 2.22977L0.611879 5.26288C0.358263 5.51649 0.557042 5.94833 0.913475 5.92091L23.3345 4.33752L3.27827 24.3937C3.12747 24.5445 3.12747 24.7913 3.27827 24.9421L5.33461 26.9984C5.48541 27.1492 5.73217 27.1492 5.88297 26.9984L25.9358 6.94565L24.3524 29.3667C24.3284 29.7265 24.7568 29.9219 25.0104 29.6683L28.1463 26.5323C28.2114 26.4672 28.2526 26.3781 28.256 26.2856L29.9833 1.95216C29.9988 1.73034 29.9665 1.50779 29.8886 1.29952C29.8107 1.09125 29.6891 0.902111 29.5318 0.744879C29.3746 0.587648 29.1855 0.465982 28.9772 0.388092C28.7689 0.310203 28.5464 0.277904 28.3245 0.293379Z" fill="#F2F2F2"/>
</svg>
