<svg width="18" height="18" viewBox="0 0 18 18" fill="none" xmlns="http://www.w3.org/2000/svg">
<path d="M1.03442 1.03424C1.14473 0.923648 1.27577 0.835909 1.42004 0.776043C1.56431 0.716178 1.71897 0.685364 1.87517 0.685364C2.03137 0.685364 2.18603 0.716178 2.3303 0.776043C2.47457 0.835909 2.60561 0.923648 2.71592 1.03424L9.00017 7.32086L15.2844 1.03424C15.3948 0.923827 15.5259 0.836246 15.6702 0.776493C15.8144 0.71674 15.969 0.685986 16.1252 0.685986C16.2813 0.685986 16.4359 0.71674 16.5802 0.776493C16.7244 0.836246 16.8555 0.923827 16.9659 1.03424C17.0763 1.14464 17.1639 1.27572 17.2237 1.41997C17.2834 1.56423 17.3142 1.71884 17.3142 1.87499C17.3142 2.03113 17.2834 2.18574 17.2237 2.33C17.1639 2.47425 17.0763 2.60533 16.9659 2.71574L10.6793 8.99999L16.9659 15.2842C17.0763 15.3946 17.1639 15.5257 17.2237 15.67C17.2834 15.8142 17.3142 15.9688 17.3142 16.125C17.3142 16.2811 17.2834 16.4357 17.2237 16.58C17.1639 16.7243 17.0763 16.8553 16.9659 16.9657C16.8555 17.0761 16.7244 17.1637 16.5802 17.2235C16.4359 17.2832 16.2813 17.314 16.1252 17.314C15.969 17.314 15.8144 17.2832 15.6702 17.2235C15.5259 17.1637 15.3948 17.0761 15.2844 16.9657L9.00017 10.6791L2.71592 16.9657C2.60551 17.0761 2.47444 17.1637 2.33018 17.2235C2.18592 17.2832 2.03131 17.314 1.87517 17.314C1.71903 17.314 1.56441 17.2832 1.42016 17.2235C1.2759 17.1637 1.14483 17.0761 1.03442 16.9657C0.92401 16.8553 0.836429 16.7243 0.776676 16.58C0.716923 16.4357 0.686169 16.2811 0.686169 16.125C0.686169 15.9688 0.716923 15.8142 0.776676 15.67C0.836429 15.5257 0.92401 15.3946 1.03442 15.2842L7.32104 8.99999L1.03442 2.71574C0.923831 2.60543 0.836092 2.47439 0.776226 2.33012C0.716361 2.18585 0.685547 2.03118 0.685547 1.87499C0.685547 1.71879 0.716361 1.56413 0.776226 1.41986C0.836092 1.27559 0.923831 1.14454 1.03442 1.03424Z" fill="black"/>
</svg>
