<svg width="191" height="39" viewBox="0 0 191 39" fill="none" xmlns="http://www.w3.org/2000/svg">
<path d="M8.25988 5.58443H0V0.575256H22.2735V5.58443H13.9881V24.7583H8.25988V5.58443Z" fill="#42C0EF"/>
<path d="M47.5648 24.7583H41.8622V15.0755H30.4058V24.7583H24.7031V0.575256H30.4058V10.0903H41.8622V0.575256H47.5648V24.7583Z" fill="#42C0EF"/>
<path d="M72.4208 24.7583H52.3721V0.575256H72.0884V5.58443H58.0747V10.0663H71.1678V14.9077H58.0747V19.7491H72.4208V24.7583Z" fill="#42C0EF"/>
<path d="M89.7079 18.0474C89.7079 17.2805 89.1453 16.6094 88.0201 16.0342C87.5087 15.7945 86.2301 15.411 84.2098 14.8598C82.2152 14.3325 80.7831 13.8771 79.8881 13.4696C76.845 12.1514 75.3107 10.1142 75.3107 7.35798C75.3107 5.872 75.8732 4.50586 76.9729 3.25956C78.0725 2.03723 79.4278 1.15044 81.0389 0.647121C82.3686 0.215709 83.8007 0 85.3094 0C87.3552 0 89.2476 0.383474 91.0121 1.15043C92.7766 1.91738 94.2342 3.01989 95.4105 4.45793L91.5747 7.90922C89.759 5.96787 87.5854 5.00917 85.0793 5.00917C82.4965 5.00917 81.2179 5.77613 81.2179 7.28607C81.2179 8.1489 81.9083 8.77205 83.3148 9.15553C84.0308 9.41917 85.2072 9.75471 86.8438 10.1622C87.8411 10.4258 88.7106 10.6655 89.4266 10.8812C90.1426 11.1209 90.9098 11.4324 91.7537 11.8638C92.5976 12.2952 93.2625 12.7506 93.7739 13.23C94.2854 13.7093 94.7201 14.3325 95.0525 15.0994C95.385 15.8664 95.564 16.7052 95.564 17.616C95.564 19.9648 94.5922 21.8343 92.6232 23.2244C90.6541 24.6145 88.3781 25.3095 85.7953 25.3095C83.2892 25.3095 80.9366 24.8062 78.7629 23.7996C76.5637 22.7929 74.9526 21.3309 73.853 19.3896L78.0213 16.13C78.8396 17.4003 79.9137 18.4069 81.2946 19.1499C82.6499 19.8929 84.1076 20.2764 85.6675 20.2764C86.6648 20.2764 87.5854 20.1086 88.4293 19.7731C89.2987 19.4615 89.7079 18.8863 89.7079 18.0474Z" fill="#42C0EF"/>
<path d="M104.975 5.58443H96.7148V0.575256H118.988V5.58443H110.703V24.7583H105V5.58443H104.975Z" fill="#42C0EF"/>
<path d="M118.834 12.6547C118.834 9.15552 120.139 6.18357 122.721 3.76287C125.304 1.34217 128.45 0.143799 132.132 0.143799C134.74 0.143799 137.144 0.790913 139.369 2.10912C141.594 3.42732 143.205 5.17694 144.228 7.4059C145.021 9.20345 145.404 10.9531 145.404 12.6547C145.404 16.13 144.126 19.078 141.543 21.5227C138.96 23.9434 135.84 25.1657 132.132 25.1657C128.399 25.1657 125.253 23.9434 122.67 21.5227C120.139 19.102 118.834 16.154 118.834 12.6547ZM126.839 7.47781C125.458 8.91585 124.767 10.6415 124.767 12.6547C124.767 14.692 125.458 16.4176 126.864 17.8317C128.271 19.2697 130.035 19.9648 132.132 19.9648C134.357 19.9648 136.121 19.2697 137.451 17.8557C138.781 16.4416 139.471 14.7159 139.471 12.6308C139.471 10.6175 138.781 8.91585 137.374 7.45384C135.968 6.0158 134.229 5.29678 132.132 5.29678C129.984 5.34471 128.22 6.03977 126.839 7.47781Z" fill="#42C0EF"/>
<path d="M168.573 24.7583H148.908V0.575256H154.611V19.7491H168.548V24.7583H168.573Z" fill="#42C0EF"/>
<path d="M191 24.7583H171.335V0.575256H177.038V19.7491H190.975V24.7583H191Z" fill="#42C0EF"/>
<path d="M152.385 29.2162C153.332 29.2162 154.124 29.5278 154.789 30.1509C155.454 30.7741 155.787 31.541 155.787 32.4518C155.787 33.3625 155.454 34.1295 154.789 34.7526C154.124 35.3758 153.332 35.6874 152.385 35.6874C151.209 35.6874 150.314 35.232 149.726 34.3212V38.0122H148.856V29.36H149.726V30.5823C150.314 29.6716 151.209 29.2162 152.385 29.2162ZM150.468 34.2014C150.979 34.6807 151.593 34.8964 152.309 34.8964C153.05 34.8964 153.664 34.6568 154.15 34.2014C154.661 33.722 154.892 33.1468 154.892 32.4518C154.892 31.7567 154.636 31.1815 154.15 30.7261C153.638 30.2468 153.025 30.0071 152.309 30.0071C151.567 30.0071 150.953 30.2468 150.468 30.7261C149.956 31.2055 149.726 31.7807 149.726 32.4518C149.726 33.1229 149.956 33.722 150.468 34.2014Z" fill="#42C0EF"/>
<path d="M158.114 30.3906C158.523 29.6476 159.213 29.2641 160.211 29.2641V30.055C159.904 30.055 159.622 30.103 159.367 30.1749C159.111 30.2468 158.881 30.3906 158.702 30.5344C158.523 30.7022 158.369 30.9178 158.267 31.1815C158.165 31.4451 158.114 31.7567 158.114 32.0923V35.5196H157.244V29.36H158.114V30.3906Z" fill="#42C0EF"/>
<path d="M166.527 34.7766C165.837 35.3997 165.018 35.7113 164.072 35.7113C163.1 35.7113 162.282 35.3997 161.592 34.7766C160.927 34.1534 160.594 33.3865 160.594 32.4518C160.594 31.541 160.927 30.7741 161.592 30.1509C162.256 29.5278 163.075 29.2162 164.072 29.2162C165.044 29.2162 165.862 29.5278 166.527 30.1509C167.192 30.7741 167.55 31.541 167.55 32.4518C167.524 33.3625 167.192 34.1295 166.527 34.7766ZM162.205 34.2014C162.717 34.6807 163.33 34.8964 164.047 34.8964C164.763 34.8964 165.402 34.6568 165.888 34.2014C166.399 33.722 166.629 33.1468 166.629 32.4518C166.629 31.7567 166.374 31.1815 165.888 30.7261C165.376 30.2468 164.763 30.0071 164.047 30.0071C163.33 30.0071 162.691 30.2468 162.205 30.7261C161.694 31.2055 161.464 31.7807 161.464 32.4518C161.464 33.1229 161.719 33.722 162.205 34.2014Z" fill="#42C0EF"/>
<path d="M169.11 29.36H169.979V36.0469C169.979 36.7899 169.775 37.3651 169.366 37.7246C168.956 38.0842 168.368 38.2519 167.601 38.18V37.3891C168.138 37.437 168.522 37.3651 168.752 37.1494C168.982 36.9337 169.11 36.5742 169.11 36.0469V29.36ZM169.084 27.0352C169.212 26.9154 169.366 26.8674 169.545 26.8674C169.724 26.8674 169.877 26.9154 170.005 27.0352C170.133 27.155 170.184 27.2988 170.184 27.4666C170.184 27.6344 170.133 27.7782 170.005 27.898C169.877 28.0179 169.724 28.0658 169.545 28.0658C169.366 28.0658 169.212 28.0179 169.084 27.898C168.956 27.7782 168.905 27.6344 168.905 27.4666C168.905 27.2988 168.982 27.155 169.084 27.0352Z" fill="#42C0EF"/>
<path d="M174.864 29.2162C175.861 29.2162 176.628 29.5517 177.216 30.1988C177.83 30.846 178.137 31.6129 178.137 32.4757C178.137 32.5237 178.137 32.5716 178.137 32.6435C178.137 32.7154 178.137 32.7873 178.111 32.8592H172.306C172.383 33.4824 172.664 33.9857 173.15 34.3452C173.636 34.7047 174.224 34.8964 174.94 34.8964C175.452 34.8964 175.887 34.8006 176.245 34.6088C176.603 34.4171 176.884 34.1535 177.063 33.8419L177.83 34.2733C177.549 34.7287 177.14 35.0642 176.654 35.3279C176.142 35.5675 175.58 35.7113 174.94 35.7113C173.892 35.7113 173.048 35.3998 172.409 34.8006C171.769 34.2014 171.437 33.4105 171.437 32.4757C171.437 31.541 171.769 30.7741 172.409 30.1509C173.048 29.5278 173.866 29.2162 174.864 29.2162ZM174.864 30.0071C174.531 30.0071 174.199 30.055 173.918 30.1509C173.636 30.2468 173.381 30.3906 173.15 30.5823C172.92 30.7741 172.741 30.9898 172.613 31.2294C172.46 31.4931 172.383 31.7567 172.332 32.0683H177.268C177.165 31.3972 176.91 30.8939 176.475 30.5584C175.989 30.1988 175.477 30.0071 174.864 30.0071Z" fill="#42C0EF"/>
<path d="M182.612 35.7113C181.615 35.7113 180.796 35.3997 180.132 34.7766C179.467 34.1534 179.134 33.3865 179.134 32.4518C179.134 31.541 179.467 30.7741 180.132 30.1509C180.796 29.5278 181.615 29.2162 182.612 29.2162C183.277 29.2162 183.865 29.36 184.377 29.6476C184.888 29.9352 185.272 30.3426 185.502 30.822L184.786 31.2055C184.607 30.846 184.325 30.5344 183.942 30.3187C183.558 30.103 183.098 29.9831 182.612 29.9831C181.871 29.9831 181.257 30.2228 180.771 30.7021C180.259 31.1815 180.029 31.7567 180.029 32.4278C180.029 33.0989 180.285 33.6981 180.771 34.1774C181.282 34.6568 181.896 34.8725 182.612 34.8725C183.124 34.8725 183.558 34.7526 183.942 34.5369C184.325 34.3212 184.632 34.0336 184.837 33.6501L185.553 34.0576C185.272 34.5609 184.888 34.9444 184.351 35.232C183.814 35.5196 183.251 35.7113 182.612 35.7113Z" fill="#42C0EF"/>
<path d="M190.31 30.151H188.417V33.9138C188.417 34.1775 188.468 34.3692 188.545 34.513C188.622 34.6568 188.75 34.7527 188.903 34.8006C189.056 34.8486 189.261 34.8725 189.491 34.8725C189.721 34.8725 190.003 34.8486 190.335 34.8486V35.5676C189.415 35.6874 188.724 35.6395 188.264 35.3758C187.803 35.1122 187.573 34.6329 187.573 33.9138V30.1749H186.192V29.3601H187.573V27.8741L188.443 27.6344V29.3601H190.335V30.151H190.31Z" fill="#42C0EF"/>
</svg>
