<svg width="20" height="24" viewBox="0 0 20 24" fill="none" xmlns="http://www.w3.org/2000/svg">
<path d="M9.60545 23.6877C7.8913 22.3114 6.30243 20.8025 4.85546 19.1768C2.68403 16.7354 0.10547 13.0996 0.10547 9.63493C0.104528 7.8655 0.66123 6.13558 1.70512 4.6641C2.74901 3.19262 4.23317 2.04572 5.96976 1.36855C7.70635 0.691381 9.61732 0.514384 11.4608 0.859957C13.3043 1.20553 14.9975 2.05814 16.326 3.30988C17.2105 4.13882 17.9116 5.12466 18.3887 6.21035C18.8658 7.29604 19.1094 8.46002 19.1054 9.63493C19.1054 13.0996 16.5269 16.7354 14.3554 19.1768C12.9085 20.8025 11.3196 22.3114 9.60545 23.6877ZM9.60545 5.80234C8.52564 5.80234 7.49006 6.20613 6.72652 6.92488C5.96298 7.64363 5.53403 8.61846 5.53403 9.63493C5.53403 10.6514 5.96298 11.6262 6.72652 12.345C7.49006 13.0637 8.52564 13.4675 9.60545 13.4675C10.6853 13.4675 11.7208 13.0637 12.4844 12.345C13.2479 11.6262 13.6769 10.6514 13.6769 9.63493C13.6769 8.61846 13.2479 7.64363 12.4844 6.92488C11.7208 6.20613 10.6853 5.80234 9.60545 5.80234Z" fill="white"/>
</svg>
